# xmcd
#
# Track frame offsets: 
#        150
#        10302
#        29935
#        40940
#        53311
#        66134
#        79478
#        88439
#        106611
#        115383
#        132769
#        143103
#        160163
#
# Disc length: 2332 seconds
#
# Revision: 0
# Processed by: cddbd v1.5.2PL0 Copyright (c) Steve Scherf et al.
# Submitted via: ExactAudioCopy v1.0b4
#
DISCID=af091a0d
DTITLE=John Mayall and The Blues Breakers - Rare Tracks - Vol 1 (LP)
DYEAR=1900
DGENRE=Blues
TTITLE0=Crawling Up A Hill
TTITLE1=All My Life
TTITLE2=Ridin' On The L And N
TTITLE3=Little By Little
TTITLE4=Eagle Eye
TTITLE5=Burn Out Youe Eyes
TTITLE6=Long Night
TTITLE7=Evil Woman Blues
TTITLE8=Missing You
TTITLE9=10 - Greeny
TTITLE10=Milkman Strut
TTITLE11=Bernard Jenkins
TTITLE12=Lonely Years
EXTD=
EXTT0=
EXTT1=
EXTT2=
EXTT3=
EXTT4=
EXTT5=
EXTT6=
EXTT7=
EXTT8=
EXTT9=
EXTT10=
EXTT11=
EXTT12=
PLAYORDER=
